#!OML:ASF F:\twosubjects\two\Thursday\Session 1\Rory.ASF
:FULLY-SPECIFIED
:DEGREES
344
root 12.0485 17.8194 -13.974 0.848299 -23.7289 5.91647
lowerback 2.73364 0.612677 -1.76442
upperback 2.74928 0.788921 -1.63513
thorax 1.28605 0.375794 -0.699682
lowerneck -8.92231 1.91303 2.14116
upperneck 19.3295 2.85163 -3.22221
head 7.47884 1.2016 -1.15511
rclavicle 1.2275e-014 5.76476e-015
rhumerus -39.9662 -20.417 -75.1149
rradius 26.1198
rwrist 23.2984
rhand -23.5028 23.738
rfingers 7.12502
rthumb 2.95754 -6.22122
lclavicle 1.2275e-014 5.76476e-015
lhumerus -29.9165 6.54177 83.4388
lradius 43.1446
lwrist -14.8649
lhand -10.1146 32.276
lfingers 7.12502
lthumb 15.8733 61.6454
rfemur -10.8618 4.93642 18.872
rtibia 26.2623
rfoot -16.6677 -12.8621
rtoes -4.907
lfemur -21.8162 11.0465 -14.179
ltibia 36.0112
lfoot -3.2113 -6.50164
ltoes 0.082197
345
root 12.0583 17.8215 -13.9773 0.887734 -23.7797 5.90052
lowerback 2.5941 0.636479 -1.76772
upperback 2.77495 0.825186 -1.591
thorax 1.38979 0.3929 -0.651396
lowerneck -9.08451 1.71462 1.77453
upperneck 19.2379 2.65418 -3.30802
head 7.46842 1.07296 -1.13851
rclavicle 2.83765e-014 -2.94201e-014
rhumerus -39.7733 -19.7995 -75.3578
rradius 26.4199
rwrist 22.9131
rhand -23.0043 23.0319
rfingers 7.12502
rthumb 3.4389 -6.92013
lclavicle 2.83765e-014 -2.94201e-014
lhumerus -29.7969 6.52825 83.5991
lradius 43.0595
lwrist -14.7559
lhand -10.5272 31.72
lfingers 7.12502
lthumb 15.4759 61.1205
rfemur -10.8571 5.09675 18.8365
rtibia 26.1024
rfoot -16.6332 -12.8962
rtoes -4.35319
lfemur -21.4898 10.5422 -14.0528
ltibia 35.6998
lfoot -4.34315 -5.47283
ltoes -0.0514196
346
root 12.0693 17.8189 -13.981 0.860829 -23.8094 5.73674
lowerback 2.74366 0.68587 -1.62745
upperback 2.68918 0.886971 -1.55228
thorax 1.21915 0.426997 -0.693399
lowerneck -9.1499 1.61695 1.74727
upperneck 19.4011 2.56435 -3.49073
head 7.5331 1.00917 -1.20217
rclavicle 8.49804e-014 -2.0276e-014
rhumerus -39.8638 -19.6485 -75.3259
rradius 26.6691
rwrist 23.0611
rhand -22.3954 23.1406
rfingers 7.12502
rthumb 4.02692 -6.80108
lclavicle 8.49804e-014 -2.0276e-014
lhumerus -29.9529 6.02277 83.7594
lradius 42.9217
lwrist -14.4398
lhand -10.6916 31.1851
lfingers 7.12502
lthumb 15.3176 60.5978
rfemur -10.6768 5.2105 18.9795
rtibia 25.9144
rfoot -16.5005 -12.8436
rtoes -3.61001
lfemur -21.0276 10.1518 -13.7203
ltibia 35.3746
lfoot -5.30912 -4.46841
ltoes 1.20559
347
root 12.0757 17.8199 -13.983 0.758734 -23.8826 5.58323
lowerback 2.87708 0.726651 -1.51939
upperback 2.67634 0.939026 -1.51605
thorax 1.13234 0.454829 -0.719471
lowerneck -9.12195 1.54942 1.67757
upperneck 19.3858 2.51193 -3.63568
head 7.52252 0.966399 -1.24296
rclavicle 1.38155e-014 -9.93923e-016
rhumerus -39.7796 -19.5252 -75.3571
rradius 26.8309
rwrist 23.3812
rhand -22.2904 23.5312
rfingers 7.12502
rthumb 4.12831 -6.40854
lclavicle 1.38155e-014 -9.93923e-016
lhumerus -30.0907 6.16076 83.7715
lradius 42.8136
lwrist -14.6385
lhand -10.6079 30.8876
lfingers 7.12502
lthumb 15.3982 60.2942
rfemur -10.3689 5.41476 19.1348
rtibia 25.702
rfoot -16.5095 -12.7272
rtoes -2.54272
lfemur -20.4911 9.80417 -13.381
ltibia 35.059
lfoot -6.08315 -3.24367
ltoes 3.17733
348
root 12.0811 17.828 -13.9824 0.752922 -24.0063 5.48713
lowerback 2.71625 0.706235 -1.54318
upperback 2.76295 0.916757 -1.42161
thorax 1.3093 0.441429 -0.606278
lowerneck -8.94301 1.57713 1.67778
upperneck 18.9595 2.62545 -4.07681
head 7.36021 0.988129 -1.37603
rclavicle -5.31749e-014 -3.97569e-015
rhumerus -39.3923 -18.8765 -75.6971
rradius 27.0646
rwrist 22.9227
rhand -22.4823 23.7152
rfingers 7.12502
rthumb 3.94305 -6.22803
lclavicle -5.31749e-014 -3.97569e-015
lhumerus -30.2549 7.02679 83.7994
lradius 43.0639
lwrist -15.163
lhand -10.9509 30.8662
lfingers 7.12502
lthumb 15.0678 60.2979
rfemur -10.2626 5.3109 19.2313
rtibia 25.5636
rfoot -16.3729 -12.667
rtoes -3.85492
lfemur -20.0169 9.39732 -13.1626
ltibia 34.7098
lfoot -6.71767 -1.47036
ltoes 4.40284
349
root 12.0881 17.8291 -13.9804 0.79816 -24.2266 5.36239
lowerback 2.60471 0.662366 -1.61421
upperback 2.71193 0.858418 -1.26465
thorax 1.31581 0.409903 -0.403673
lowerneck -8.79728 1.67175 1.52083
upperneck 18.8747 2.8333 -4.36086
head 7.31535 1.05352 -1.42425
rclavicle 2.03257e-014 -6.55989e-015
rhumerus -39.159 -17.8551 -75.9589
rradius 27.3702
rwrist 22.2863
rhand -22.2986 23.6701
rfingers 7.12502
rthumb 4.12044 -6.26984
lclavicle 2.03257e-014 -6.55989e-015
lhumerus -30.7038 7.56709 83.9666
lradius 43.2576
lwrist -14.4763
lhand -12.264 30.8648
lfingers 7.12502
lthumb 13.8026 60.3869
rfemur -10.3159 4.81032 19.3741
rtibia 25.5281
rfoot -15.999 -12.6189
rtoes -7.98381
lfemur -19.4689 9.09788 -12.914
ltibia 34.2946
lfoot -7.04592 -0.000925488
ltoes 5.87878
